<svg xmlns="http://www.w3.org/2000/svg" viewBox="0 0 1200 500" fill="none" aria-hidden="true">
  <path
    fill="#E8EAED"
    d="M80 340h40l28-52c12-22 34-38 58-42l118-14 96-78c28-22 62-34 98-34h142c36 0 70 12 98 34l96 78 118 14c24 4 46 20 58 42l28 52h40c22 0 40 18 40 40v28c0 11-9 20-20 20h-44c-8 44-46 78-92 78s-84-34-92-78H312c-8 44-46 78-92 78s-84-34-92-78H84c-11 0-20-9-20-20v-28c0-22 18-40 40-40Zm120 48c33 0 60-27 60-60s-27-60-60-60-60 27-60 60 27 60 60 60Zm640 0c33 0 60-27 60-60s-27-60-60-60-60 27-60 60 27 60 60 60ZM420 248l72-58h216l72 58-36 32H456l-36-32Z"
  />
</svg>
